<svg xmlns="http://www.w3.org/2000/svg" viewBox="0 0 1200 260" width="1200" height="260">
  <defs>
    <linearGradient id="bg" x1="0" y1="0" x2="1" y2="1">
      <stop offset="0%" stop-color="#0b3d2a" />
      <stop offset="100%" stop-color="#124a34" />
    </linearGradient>
    <radialGradient id="glow" cx="14%" cy="45%" r="55%">
      <stop offset="0%" stop-color="#ffffff" stop-opacity="0.08" />
      <stop offset="100%" stop-color="#ffffff" stop-opacity="0" />
    </radialGradient>
  </defs>

  <rect width="1200" height="260" fill="url(#bg)" />
  <rect width="1200" height="260" fill="url(#glow)" />
  <rect x="0" y="256" width="1200" height="4" fill="#a9760a" />

  <rect x="1006" y="28" width="166" height="30" rx="4" fill="none" stroke="#a9760a" stroke-width="1.5" />
  <text x="1089" y="48" text-anchor="middle" font-family="Arial, Helvetica, sans-serif" font-size="12" font-weight="700" letter-spacing="1.5" fill="#a9760a">HACKATHON BUILD</text>

  <g transform="translate(90,60) scale(1.35)">
    <circle cx="50" cy="50" r="46" fill="none" stroke="#ffffff" stroke-width="2.5" />
    <circle cx="50" cy="50" r="37" fill="none" stroke="#b9cdb8" stroke-width="1" stroke-dasharray="1 5.2" />
    <line x1="27" y1="73" x2="73" y2="73" stroke="#ffffff" stroke-width="3" stroke-linecap="round" />
    <rect x="32" y="54" width="8" height="19" rx="1.5" fill="#ffffff" />
    <rect x="46" y="41" width="8" height="32" rx="1.5" fill="#ffffff" />
    <rect x="60" y="28" width="8" height="45" rx="1.5" fill="#a9760a" />
  </g>

  <text x="290" y="132" font-family="Georgia, 'Times New Roman', serif" font-size="72" font-weight="700" fill="#ffffff">Awaaz</text>
  <text x="292" y="164" font-family="Arial, Helvetica, sans-serif" font-size="16" letter-spacing="2" fill="#a9760a" font-weight="700">PEOPLE&#8217;S PRIORITIES</text>
  <text x="292" y="200" font-family="Arial, Helvetica, sans-serif" font-size="19" fill="#e5e8e6">Civic issue intelligence for faster constituency response.</text>
  <text x="292" y="228" font-family="Arial, Helvetica, sans-serif" font-size="14" fill="#b9cdb8">Voice / text / photo intake &#8594; evidence-ranked priorities &#8594; MP action queue</text>
</svg>
